# xmcd
#
# Track frame offsets: 
#        150
#        1440
#        22402
#        42337
#        48465
#        71010
#        91490
#        109465
#
# Disc length: 1729 seconds
#
# Revision: 0
# Processed by: cddbd v1.5.2PL0 Copyright (c) Steve Scherf et al.
# Submitted via: ExactAudioCopy v0.95b4
#
DISCID=7106bf08
DTITLE=The Swag Hooks - Dirty Greasy Bluesy Mess
DYEAR=2004
DGENRE=Blues
TTITLE0=Our Lady of Swag
TTITLE1=Do You Think (I think you do)
TTITLE2=Salvation
TTITLE3=Prelude to Trouble
TTITLE4=Trouble Again
TTITLE5=Angel Fell Down
TTITLE6=Millionaire
TTITLE7=Tipitina
EXTD=
EXTT0=
EXTT1=
EXTT2=
EXTT3=
EXTT4=
EXTT5=
EXTT6=
EXTT7=
PLAYORDER=
